<?xml version="1.0" standalone="no"?>
<!DOCTYPE svg PUBLIC "-//W3C//DTD SVG 20010904//EN"
 "http://www.w3.org/TR/2001/REC-SVG-20010904/DTD/svg10.dtd">
<svg version="1.0" xmlns="http://www.w3.org/2000/svg"
 width="375.000000pt" height="375.000000pt" viewBox="0 0 375.000000 375.000000"
 preserveAspectRatio="xMidYMid meet">
<metadata>
Created by potrace 1.14, written by Peter Selinger 2001-2017
</metadata>
<g transform="translate(0.000000,375.000000) scale(0.100000,-0.100000)"
fill="#000000" stroke="none">
<path d="M1710 3607 c-3 -3 -34 -8 -69 -11 -168 -18 -347 -70 -528 -156 -355
-169 -629 -439 -803 -795 -119 -241 -169 -447 -175 -715 -7 -309 42 -536 177
-809 139 -282 324 -493 586 -670 193 -129 454 -234 662 -266 19 -3 64 -9 100
-15 109 -15 390 -5 514 20 722 143 1259 696 1385 1425 15 87 18 149 16 295 -2
102 -6 196 -9 210 -3 13 -8 42 -11 65 -3 22 -17 83 -31 135 -173 645 -681
1123 -1333 1256 -97 20 -166 27 -301 30 -97 3 -178 3 -180 1z"/>
</g>
</svg>
